<svg width="76" height="76" viewBox="0 0 76 76" fill="none" xmlns="http://www.w3.org/2000/svg">
<rect width="76" height="76" rx="10" fill="#21201E"/>
<path d="M46.0737 53.5987L46.4498 53.3386C47.6269 52.5247 48.2156 52.1177 48.7421 51.6813C51.603 49.3101 53.5245 46.005 54.1641 42.3553C54.2818 41.6836 54.3429 40.9731 54.4653 39.552L54.5285 38.8171C54.731 36.4649 54.7108 34.099 54.4682 31.7505L54.3932 31.0237C53.9686 26.914 51.4456 23.3119 47.7175 21.493C41.5878 18.5023 34.4122 18.5023 28.2825 21.493C24.5543 23.3119 22.0313 26.914 21.6068 31.0237L21.5317 31.7505C21.2891 34.099 21.269 36.4649 21.4714 38.8171L21.5347 39.552C21.657 40.9731 21.7182 41.6836 21.8359 42.3553C22.4754 46.005 24.397 49.3101 27.2579 51.6813C27.7844 52.1176 28.3731 52.5247 29.5501 53.3386L29.9263 53.5987C31.5265 54.7053 32.3267 55.2586 33.1286 55.6431C36.2068 57.119 39.7931 57.119 42.8713 55.6431C43.6733 55.2586 44.4734 54.7053 46.0737 53.5987Z" stroke="#ED9902" stroke-width="3.125"/>
<path d="M54.4653 39.552L54.5285 38.8171C54.731 36.4649 54.7108 34.099 54.4682 31.7505L54.3932 31.0237C53.9686 26.914 51.4456 23.3119 47.7175 21.493C41.5878 18.5023 34.4122 18.5023 28.2825 21.493C24.5543 23.3119 22.0313 26.914 21.6068 31.0237L21.5317 31.7505C21.2891 34.099 21.269 36.4649 21.4714 38.8171L21.5347 39.552C21.657 40.9731 21.7182 41.6836 21.8359 42.3553C22.4754 46.005 24.397 49.3101 27.2579 51.6813C27.7844 52.1176 28.3731 52.5247 29.5501 53.3386L29.9263 53.5987C31.5265 54.7053 32.3267 55.2586 33.1286 55.6431" stroke="white" stroke-width="3.125" stroke-linecap="round"/>
<path d="M32.2708 37.4792L36.4375 41.6459L43.7291 33.8334" stroke="#ED9902" stroke-width="3.125" stroke-linecap="round" stroke-linejoin="round"/>
</svg>
