<svg width="76" height="76" viewBox="0 0 76 76" fill="none" xmlns="http://www.w3.org/2000/svg">
<rect width="76" height="76" rx="10" fill="#21201E"/>
<path d="M51.0725 45.9283V44.3658V45.9283ZM57.6129 37.5641L56.0851 37.8915L56.0851 37.8915L57.6129 37.5641ZM57.636 37.6715L59.1638 37.3441L59.1638 37.344L57.636 37.6715ZM57.636 40.6113L56.1082 40.2839V40.2839L57.636 40.6113ZM51.182 32.3545V30.792V32.3545ZM49.0413 45.9283L47.5289 45.5356L47.0212 47.4908H49.0413V45.9283ZM50.3309 32.3545V30.792H48.664L48.7716 32.4553L50.3309 32.3545ZM51.0725 44.3658H50.0539V47.4908H51.0725V44.3658ZM56.0851 37.8915L56.1082 37.9989L59.1638 37.344L59.1408 37.2367L56.0851 37.8915ZM56.1082 37.9989C56.2695 38.752 56.2695 39.5308 56.1082 40.2839L59.1638 40.9387C59.4177 39.754 59.4177 38.5288 59.1638 37.3441L56.1082 37.9989ZM51.0725 47.4908C54.9762 47.4908 58.3452 44.7582 59.1638 40.9387L56.1082 40.2839C55.5972 42.6679 53.4971 44.3658 51.0725 44.3658V47.4908ZM51.182 33.917C53.5428 33.917 55.5876 35.5702 56.0851 37.8915L59.1408 37.2367C58.3356 33.4799 55.0218 30.792 51.182 30.792V33.917ZM50.0539 44.3658H49.0413V47.4908H50.0539V44.3658ZM48.7716 32.4553C49.0561 36.8534 48.6367 41.2695 47.5289 45.5356L50.5536 46.321C51.745 41.7329 52.196 36.9835 51.8901 32.2536L48.7716 32.4553ZM51.182 30.792H50.3309V33.917H51.182V30.792Z" fill="#ED9902"/>
<path d="M28.153 19.7138L27.917 18.1693L28.153 19.7138ZM40.3664 19.7138L40.6024 18.1693L40.3664 19.7138ZM39.7371 56.2676L40.0102 57.806L39.7371 56.2676ZM28.7823 56.2676L29.0554 54.7291L29.0554 54.7291L28.7823 56.2676ZM20.3935 49.0438L21.8865 48.583L20.3935 49.0438ZM18.5406 28.8465L16.9887 28.6651L18.5406 28.8465ZM50.1299 30.1394L48.5779 30.3208V30.3208L50.1299 30.1394ZM48.5097 47.8002L47.0167 47.3394L47.0167 47.3394L48.5097 47.8002ZM18.6161 28.2007L20.168 28.3821L18.6161 28.2007ZM26.5581 19.9575L26.7941 21.5021L26.5581 19.9575ZM28.503 56.218L28.2298 57.7564H28.2298L28.503 56.218ZM48.2097 48.7721L49.7027 49.2329V49.2329L48.2097 48.7721ZM49.9562 28.6535L51.5081 28.4721V28.4721L49.9562 28.6535ZM41.5118 19.8889L41.2759 21.4334L41.5118 19.8889ZM49.0412 45.9284L47.5289 45.5357L49.0412 45.9284ZM50.3308 32.3546L48.7716 32.4555L50.3308 32.3546ZM48.4043 28.8349L48.5779 30.3208L51.6818 29.958L51.5081 28.4721L48.4043 28.8349ZM47.0167 47.3394L46.7167 48.3113L49.7027 49.2329L50.0027 48.261L47.0167 47.3394ZM20.0926 29.0279L20.168 28.3821L17.0642 28.0193L16.9887 28.6651L20.0926 29.0279ZM29.0554 54.7291L28.7761 54.6795L28.2298 57.7564L28.5092 57.806L29.0554 54.7291ZM26.7941 21.5021L28.389 21.2584L27.917 18.1693L26.3221 18.4129L26.7941 21.5021ZM40.1304 21.2584L41.2759 21.4334L41.7478 18.3443L40.6024 18.1693L40.1304 21.2584ZM28.389 21.2584C32.2803 20.6639 36.239 20.6639 40.1304 21.2584L40.6024 18.1693C36.3982 17.5269 32.1212 17.5269 27.917 18.1693L28.389 21.2584ZM39.464 54.7291C36.0212 55.3403 32.4981 55.3403 29.0554 54.7291L28.5091 57.806C32.3132 58.4813 36.2061 58.4813 40.0102 57.806L39.464 54.7291ZM21.8865 48.583C19.9355 42.2614 19.3244 35.6004 20.0926 29.0279L16.9887 28.6651C16.1701 35.6692 16.8213 42.7676 18.9005 49.5046L21.8865 48.583ZM20.168 28.3821C20.5807 24.8511 23.2956 22.0366 26.7941 21.5021L26.3221 18.4129C21.4275 19.1608 17.6396 23.0957 17.0642 28.0193L20.168 28.3821ZM18.9005 49.5046C20.2224 53.7877 23.8219 56.9739 28.2298 57.7564L28.7761 54.6795C25.5243 54.1022 22.8642 51.7507 21.8865 48.583L18.9005 49.5046ZM46.7167 48.3113C45.6875 51.6459 42.8872 54.1214 39.464 54.7291L40.0102 57.806C44.5897 56.993 48.3293 53.6829 49.7027 49.2329L46.7167 48.3113ZM51.5081 28.4721C50.9014 23.281 46.9079 19.1327 41.7478 18.3443L41.2759 21.4334C45.0398 22.0085 47.9603 25.0364 48.4043 28.8349L51.5081 28.4721ZM47.5289 45.5357C47.3719 46.1401 47.2012 46.7415 47.0167 47.3394L50.0027 48.261C50.2011 47.6179 50.3848 46.9712 50.5536 46.3211L47.5289 45.5357ZM48.5779 30.3208C48.661 31.0314 48.7255 31.7432 48.7716 32.4555L51.8901 32.2538C51.8405 31.4878 51.7711 30.7223 51.6818 29.958L48.5779 30.3208ZM48.7716 32.4555C49.056 36.8535 48.6367 41.2696 47.5289 45.5357L50.5536 46.3211C51.745 41.733 52.196 36.9836 51.8901 32.2538L48.7716 32.4555Z" fill="white"/>
<path d="M25.5 36.9584V38.5499C25.5 41.6134 26.2133 44.6349 27.5833 47.375" stroke="#ED9902" stroke-width="3.125" stroke-linecap="round"/>
</svg>
