<svg width="76" height="76" viewBox="0 0 76 76" fill="none" xmlns="http://www.w3.org/2000/svg">
<rect width="76" height="76" rx="10" fill="#21201E"/>
<path d="M19.8688 23.9037C20.3384 21.9017 21.9017 20.3384 23.9037 19.8688V19.8688C25.6388 19.4618 27.4445 19.4618 29.1796 19.8688V19.8688C31.1817 20.3384 32.7449 21.9017 33.2146 23.9037V23.9037C33.6216 25.6388 33.6216 27.4445 33.2146 29.1796V29.1796C32.7449 31.1817 31.1817 32.7449 29.1796 33.2146V33.2146C27.4445 33.6216 25.6388 33.6216 23.9037 33.2146V33.2146C21.9017 32.7449 20.3384 31.1817 19.8688 29.1796V29.1796C19.4618 27.4445 19.4618 25.6388 19.8688 23.9037V23.9037Z" stroke="white" stroke-width="3.125"/>
<path d="M19.8688 46.8204C20.3384 44.8183 21.9017 43.2551 23.9037 42.7855V42.7855C25.6388 42.3785 27.4445 42.3785 29.1796 42.7855V42.7855C31.1817 43.2551 32.7449 44.8183 33.2146 46.8204V46.8204C33.6216 48.5555 33.6216 50.3612 33.2146 52.0963V52.0963C32.7449 54.0984 31.1817 55.6616 29.1796 56.1312V56.1312C27.4445 56.5382 25.6388 56.5382 23.9037 56.1312V56.1312C21.9017 55.6616 20.3384 54.0984 19.8688 52.0963V52.0963C19.4618 50.3612 19.4618 48.5555 19.8688 46.8204V46.8204Z" stroke="#ED9902" stroke-width="3.125"/>
<path d="M42.7854 23.9037C43.2551 21.9017 44.8183 20.3384 46.8204 19.8688V19.8688C48.5555 19.4618 50.3612 19.4618 52.0963 19.8688V19.8688C54.0984 20.3384 55.6616 21.9017 56.1312 23.9037V23.9037C56.5382 25.6388 56.5382 27.4445 56.1312 29.1796V29.1796C55.6616 31.1817 54.0984 32.7449 52.0963 33.2146V33.2146C50.3612 33.6216 48.5555 33.6216 46.8204 33.2146V33.2146C44.8183 32.7449 43.2551 31.1817 42.7854 29.1796V29.1796C42.3785 27.4445 42.3785 25.6388 42.7854 23.9037V23.9037Z" stroke="white" stroke-width="3.125"/>
<path d="M42.7854 46.8204C43.2551 44.8183 44.8183 43.2551 46.8204 42.7855V42.7855C48.5555 42.3785 50.3612 42.3785 52.0963 42.7855V42.7855C54.0984 43.2551 55.6616 44.8183 56.1312 46.8204V46.8204C56.5382 48.5555 56.5382 50.3612 56.1312 52.0963V52.0963C55.6616 54.0984 54.0984 55.6616 52.0963 56.1312V56.1312C50.3612 56.5382 48.5555 56.5382 46.8204 56.1312V56.1312C44.8183 55.6616 43.2551 54.0984 42.7854 52.0963V52.0963C42.3785 50.3612 42.3785 48.5555 42.7854 46.8204V46.8204Z" stroke="white" stroke-width="3.125"/>
</svg>
