<svg width="76" height="76" viewBox="0 0 76 76" fill="none" xmlns="http://www.w3.org/2000/svg">
<rect width="76" height="76" rx="10" fill="#21201E"/>
<path d="M24.4584 31.75H20.2917" stroke="#ED9902" stroke-width="3.125" stroke-linecap="round"/>
<path d="M23.4166 44.25L21.3333 44.25" stroke="#ED9902" stroke-width="3.125" stroke-linecap="round"/>
<path d="M21.3334 38H17.1667" stroke="#ED9902" stroke-width="3.125" stroke-linecap="round"/>
<path d="M38.0852 39.5935C38.9481 39.5935 39.6477 38.894 39.6477 38.031C39.6477 37.1681 38.9481 36.4685 38.0852 36.4685V39.5935ZM32.3082 39.5935H38.0852V36.4685H32.3082V39.5935Z" fill="#ED9902"/>
<path d="M55.7899 32.7434L37.6602 23.0179C33.2974 20.6775 28.4556 25.1139 29.9402 30.0915L32.1303 37.4345C32.2464 37.8238 32.2462 38.2384 32.1297 38.6275L29.9516 45.9024C28.4622 50.877 33.2971 55.3189 37.6622 52.9862L55.7824 43.3028C59.8469 41.1307 59.8513 34.9221 55.7899 32.7434Z" stroke="white" stroke-width="3.125"/>
</svg>
