<svg width="76" height="76" viewBox="0 0 76 76" fill="none" xmlns="http://www.w3.org/2000/svg">
<rect width="76" height="76" rx="10" fill="#21201E"/>
<path d="M17.1667 48.46L17.1667 40.1699L17.2175 39.4124C17.8709 29.6636 24.8166 21.5666 34.179 19.6394C36.7011 19.1202 39.299 19.1202 41.8211 19.6394C51.1834 21.5666 58.1291 29.6636 58.7826 39.4124L58.8334 40.1699V48.46M45.4783 50.0857C45.1257 48.2298 45.1257 46.3217 45.4783 44.4657C46.0451 41.4825 48.2043 39.0797 51.0621 38.252L51.6682 38.0765C52.2983 37.894 52.95 37.8014 53.6048 37.8014C56.4925 37.8014 58.8333 40.1967 58.8333 43.1514V51.4001C58.8333 54.3547 56.4925 56.75 53.6048 56.75C52.95 56.75 52.2983 56.6574 51.6682 56.475L51.0621 56.2994C48.2043 55.4718 46.0451 53.0689 45.4783 50.0857ZM30.5217 50.0858C30.8743 48.2298 30.8743 46.3217 30.5217 44.4657C29.955 41.4825 27.7957 39.0797 24.9379 38.252L24.3318 38.0765C23.7017 37.894 23.05 37.8014 22.3952 37.8014C19.5076 37.8014 17.1667 40.1967 17.1667 43.1514L17.1667 51.4001C17.1667 54.3547 19.5076 56.75 22.3952 56.75C23.05 56.75 23.7017 56.6574 24.3318 56.475L24.9379 56.2994C27.7957 55.4718 29.955 53.0689 30.5217 50.0858Z" stroke="white" stroke-width="3.125"/>
<path d="M58.8333 51.4C58.8333 54.3547 56.4925 56.75 53.6048 56.75C52.95 56.75 52.2983 56.6574 51.6682 56.4749L51.0621 56.2994C48.2043 55.4717 46.0451 53.0688 45.4783 50.0857C45.1257 48.2297 45.1257 46.3216 45.4783 44.4656C46.0451 41.4825 48.2043 39.0796 51.0621 38.252L51.6682 38.0764C52.2983 37.8939 52.95 37.8014 53.6048 37.8014C56.4925 37.8014 58.8333 40.1967 58.8333 43.1513V51.4Z" stroke="#ED9902" stroke-width="3.125"/>
<path d="M17.1667 51.4C17.1667 54.3547 19.5076 56.75 22.3952 56.75C23.05 56.75 23.7017 56.6574 24.3318 56.4749L24.9379 56.2994C27.7957 55.4717 29.955 53.0688 30.5217 50.0857C30.8743 48.2297 30.8743 46.3216 30.5217 44.4656C29.955 41.4825 27.7957 39.0796 24.9379 38.252L24.3318 38.0764C23.7017 37.8939 23.05 37.8014 22.3952 37.8014C19.5076 37.8014 17.1667 40.1966 17.1667 43.1513L17.1667 51.4Z" stroke="#ED9902" stroke-width="3.125"/>
</svg>
