<svg width="76" height="76" viewBox="0 0 76 76" fill="none" xmlns="http://www.w3.org/2000/svg">
<rect width="76" height="76" rx="10" fill="#21201E"/>
<path d="M41.6495 22.7777C41.6495 21.0383 40.3783 19.5601 38.6585 19.2996C38.222 19.2335 37.778 19.2335 37.3415 19.2996C35.6217 19.5601 34.3505 21.0383 34.3505 22.7777V25.2374C33.368 25.5179 32.432 25.9087 31.5568 26.3957L29.8168 24.6556C28.5868 23.4257 26.6427 23.2793 25.2424 24.3112C24.887 24.5731 24.5731 24.887 24.3112 25.2424C23.2793 26.6427 23.4257 28.5869 24.6556 29.8168L26.3957 31.5568C25.9087 32.432 25.5179 33.368 25.2374 34.3505H22.7777C21.0383 34.3505 19.5601 35.6217 19.2996 37.3415C19.2335 37.778 19.2335 38.222 19.2996 38.6585C19.5601 40.3783 21.0383 41.6495 22.7777 41.6495H25.2374C25.5179 42.632 25.9087 43.568 26.3957 44.4432L24.6556 46.1832C23.4257 47.4132 23.2793 49.3573 24.3112 50.7576C24.5731 51.113 24.887 51.4269 25.2425 51.6888C26.6427 52.7207 28.5868 52.5743 29.8168 51.3444L31.5568 49.6044C32.432 50.0913 33.368 50.4822 34.3505 50.7626V53.2223C34.3505 54.9617 35.6217 56.4399 37.3415 56.7004C37.778 56.7665 38.222 56.7665 38.6585 56.7004C40.3783 56.4399 41.6495 54.9617 41.6495 53.2223V50.7626C42.632 50.4822 43.568 50.0913 44.4432 49.6044L46.1832 51.3444C47.4131 52.5743 49.3573 52.7207 50.7576 51.6888C51.113 51.4269 51.4269 51.113 51.6888 50.7576C52.7207 49.3573 52.5743 47.4132 51.3444 46.1833L49.6044 44.4432C50.0913 43.5681 50.4822 42.6321 50.7626 41.6495H53.2223C54.9617 41.6495 56.4399 40.3783 56.7004 38.6585C56.7665 38.222 56.7665 37.778 56.7004 37.3415C56.4399 35.6217 54.9617 34.3505 53.2223 34.3505H50.7626C50.4822 33.368 50.0913 32.432 49.6044 31.5568L51.3444 29.8168C52.5743 28.5868 52.7207 26.6427 51.6888 25.2424C51.4269 24.887 51.113 24.5731 50.7576 24.3112C49.3573 23.2793 47.4132 23.4257 46.1832 24.6556L44.4432 26.3957C43.568 25.9087 42.632 25.5179 41.6495 25.2374V22.7777Z" stroke="#ED9902" stroke-width="3.125" stroke-linecap="round" stroke-linejoin="round"/>
<path d="M50.7576 51.6888C49.3573 52.7207 47.4131 52.5743 46.1832 51.3444L44.4432 49.6044C43.568 50.0913 42.632 50.4822 41.6495 50.7626V53.2223C41.6495 54.9617 40.3783 56.4399 38.6585 56.7004C38.222 56.7665 37.778 56.7665 37.3415 56.7004C35.6217 56.4399 34.3505 54.9617 34.3505 53.2223V50.7626C33.368 50.4822 32.432 50.0913 31.5568 49.6044L29.8168 51.3444C28.5868 52.5743 26.6427 52.7207 25.2425 51.6888C24.887 51.4269 24.5731 51.113 24.3112 50.7576C23.2793 49.3573 23.4257 47.4132 24.6556 46.1832L26.3957 44.4432C25.9087 43.568 25.5179 42.632 25.2374 41.6495H22.7777C21.0383 41.6495 19.5601 40.3783 19.2996 38.6585C19.2335 38.222 19.2335 37.778 19.2996 37.3415C19.5601 35.6217 21.0383 34.3505 22.7777 34.3505H25.2374C25.5179 33.368 25.9087 32.432 26.3957 31.5568L24.6556 29.8168C23.4257 28.5869 23.2793 26.6427 24.3112 25.2424C24.5731 24.887 24.887 24.5731 25.2424 24.3112C26.6427 23.2793 28.5868 23.4257 29.8168 24.6556L31.5568 26.3957C32.432 25.9087 33.368 25.5179 34.3505 25.2374V22.7777C34.3505 21.0383 35.6217 19.5601 37.3415 19.2996C37.778 19.2335 38.222 19.2335 38.6585 19.2996C40.3783 19.5601 41.6495 21.0383 41.6495 22.7777V25.2374C42.632 25.5179 43.568 25.9087 44.4432 26.3957L46.1832 24.6556C47.4132 23.4257 49.3573 23.2793 50.7576 24.3112" stroke="white" stroke-width="3.125" stroke-linecap="round" stroke-linejoin="round"/>
<path d="M32.7917 38C32.7917 35.1235 35.1235 32.7917 38 32.7917C40.8765 32.7917 43.2083 35.1235 43.2083 38C43.2083 40.8765 40.8765 43.2084 38 43.2084C35.1235 43.2084 32.7917 40.8765 32.7917 38Z" stroke="#ED9902" stroke-width="3.125"/>
</svg>
